<svg xmlns="http://www.w3.org/2000/svg" xmlns:xlink="http://www.w3.org/1999/xlink" width="1080" zoomAndPan="magnify" viewBox="0 0 810 809.999993" height="1080" preserveAspectRatio="xMidYMid meet" version="1.0"><defs><g/></defs><rect x="-81" width="972" fill="rgb(100%, 100%, 100%)" y="-80.999999" height="971.999992" fill-opacity="1"/><rect x="-81" width="972" fill="rgb(100%, 100%, 100%)" y="-80.999999" height="971.999992" fill-opacity="1"/><rect x="-81" width="972" fill="rgb(100%, 100%, 100%)" y="-80.999999" height="971.999992" fill-opacity="1"/><rect x="-81" width="972" fill="rgb(100%, 100%, 100%)" y="-80.999999" height="971.999992" fill-opacity="1"/><path fill="rgb(35.688782%, 35.688782%, 35.688782%)" d="M 576.78125 579.097656 L 207.394531 579.097656 C 187.25 579.097656 170.835938 562.679688 170.835938 542.535156 L 170.835938 170.910156 C 170.835938 150.765625 187.25 134.347656 207.394531 134.347656 L 576.78125 134.347656 C 596.925781 134.347656 613.335938 150.765625 613.335938 170.910156 L 613.335938 542.535156 C 613.335938 562.679688 596.925781 579.097656 576.78125 579.097656 " fill-opacity="1" fill-rule="nonzero"/><path fill="rgb(10.5896%, 10.5896%, 10.5896%)" d="M 544.828125 547.144531 L 175.441406 547.144531 C 155.296875 547.144531 138.882812 530.730469 138.882812 510.582031 L 138.882812 138.957031 C 138.882812 118.8125 155.296875 102.394531 175.441406 102.394531 L 544.828125 102.394531 C 564.972656 102.394531 581.382812 118.8125 581.382812 138.957031 L 581.382812 510.582031 C 581.382812 530.730469 564.972656 547.144531 544.828125 547.144531 " fill-opacity="1" fill-rule="nonzero"/><path stroke-linecap="round" transform="matrix(0.000000000000000275, -4.498212, 4.5, 0.000000000000000276, 688.149689, 796.153564)" fill="none" stroke-linejoin="miter" d="M 0.499602 -0.000278084 L 150.227504 -0.000278084 " stroke="rgb(10.5896%, 10.5896%, 10.5896%)" stroke-width="1" stroke-opacity="1" stroke-miterlimit="4"/><g fill="rgb(10.5896%, 10.5896%, 10.5896%)" fill-opacity="1"><g transform="translate(159.547578, 677.379961)"><g><path d="M 49.035156 -46.824219 L 45.953125 -46.890625 L 26.996094 -26.59375 L 8.039062 -46.890625 L 4.957031 -46.890625 L 4.957031 0 L 9.246094 0 L 9.246094 -39.324219 L 26.996094 -20.296875 L 44.75 -39.324219 L 44.75 0.0664062 L 49.035156 0.0664062 Z M 49.035156 -46.824219 "/></g></g></g><g fill="rgb(10.5896%, 10.5896%, 10.5896%)" fill-opacity="1"><g transform="translate(220.297269, 677.379961)"><g><path d="M 46.089844 0 L 27.867188 -46.890625 L 23.179688 -46.890625 L 5.023438 0 L 9.578125 0 L 15.609375 -15.472656 L 35.503906 -15.472656 L 41.53125 0 Z M 33.894531 -19.761719 L 17.28125 -19.761719 L 25.589844 -41.132812 Z M 33.894531 -19.761719 "/></g></g></g><g fill="rgb(10.5896%, 10.5896%, 10.5896%)" fill-opacity="1"><g transform="translate(278.033043, 677.379961)"><g><path d="M 25.253906 -21.703125 L 25.1875 -17.28125 L 42.269531 -17.28125 L 42.269531 -9.378906 C 40.527344 -7.703125 38.519531 -6.429688 36.175781 -5.558594 C 33.828125 -4.6875 31.285156 -4.289062 28.539062 -4.289062 C 26.125 -4.289062 23.714844 -4.621094 21.4375 -5.425781 C 19.160156 -6.164062 17.082031 -7.300781 15.273438 -8.910156 C 13.464844 -10.449219 11.992188 -12.460938 10.917969 -14.871094 C 9.847656 -17.28125 9.3125 -20.164062 9.3125 -23.511719 C 9.3125 -26.796875 9.847656 -29.675781 10.917969 -32.085938 C 11.992188 -34.5 13.464844 -36.441406 15.273438 -38.050781 C 17.082031 -39.65625 19.160156 -40.796875 21.4375 -41.601562 C 23.714844 -42.335938 26.125 -42.738281 28.539062 -42.738281 C 31.484375 -42.738281 34.164062 -42.203125 36.644531 -41.265625 C 39.054688 -40.328125 41.199219 -38.921875 42.941406 -37.042969 L 44.414062 -35.503906 L 47.496094 -38.382812 L 46.019531 -39.925781 C 43.878906 -42.203125 41.265625 -43.945312 38.25 -45.152344 C 35.234375 -46.355469 32.019531 -46.960938 28.539062 -46.960938 C 25.320312 -46.960938 22.242188 -46.421875 19.425781 -45.417969 C 16.613281 -44.347656 14.132812 -42.871094 11.992188 -40.863281 C 9.714844 -38.71875 7.972656 -36.175781 6.765625 -33.292969 C 5.558594 -30.347656 5.023438 -27.128906 5.023438 -23.578125 C 5.023438 -19.960938 5.558594 -16.746094 6.765625 -13.867188 C 7.972656 -10.917969 9.714844 -8.441406 11.992188 -6.296875 C 14.132812 -4.289062 16.613281 -2.746094 19.425781 -1.742188 C 22.242188 -0.667969 25.320312 -0.199219 28.539062 -0.199219 C 32.019531 -0.199219 35.234375 -0.804688 38.25 -2.007812 C 41.265625 -3.214844 43.878906 -4.957031 46.019531 -7.234375 L 46.625 -7.835938 L 46.625 -21.703125 Z M 25.253906 -21.703125 "/></g></g></g><g fill="rgb(10.5896%, 10.5896%, 10.5896%)" fill-opacity="1"><g transform="translate(337.108336, 677.379961)"><g><path d="M 45.285156 -46.890625 L 40.996094 -46.890625 L 40.996094 -7.972656 L 8.171875 -46.890625 L 5.023438 -46.890625 L 5.023438 0 L 9.3125 0 L 9.3125 -38.921875 L 42.136719 0 L 45.285156 0 Z M 45.285156 -46.890625 "/></g></g></g><g fill="rgb(10.5896%, 10.5896%, 10.5896%)" fill-opacity="1"><g transform="translate(394.040394, 677.379961)"><g><path d="M 45.015625 -40.796875 C 42.871094 -42.804688 40.328125 -44.28125 37.515625 -45.351562 C 34.699219 -46.355469 31.6875 -46.890625 28.46875 -46.890625 C 25.253906 -46.890625 22.171875 -46.355469 19.359375 -45.351562 C 16.546875 -44.28125 14.066406 -42.804688 11.925781 -40.796875 C 9.644531 -38.652344 7.90625 -36.105469 6.699219 -33.226562 C 5.492188 -30.277344 4.957031 -27.0625 4.957031 -23.511719 C 4.957031 -19.894531 5.492188 -16.679688 6.699219 -13.800781 C 7.90625 -10.851562 9.644531 -8.375 11.925781 -6.230469 C 14.066406 -4.21875 16.546875 -2.679688 19.359375 -1.675781 C 22.171875 -0.601562 25.253906 -0.132812 28.46875 -0.132812 C 31.6875 -0.132812 34.699219 -0.601562 37.515625 -1.675781 C 40.328125 -2.679688 42.871094 -4.21875 45.015625 -6.230469 C 47.292969 -8.375 48.96875 -10.851562 50.175781 -13.800781 C 51.378906 -16.679688 51.984375 -19.894531 51.984375 -23.511719 C 51.984375 -27.0625 51.378906 -30.277344 50.175781 -33.226562 C 48.96875 -36.105469 47.292969 -38.652344 45.015625 -40.796875 Z M 28.46875 -4.289062 C 26.058594 -4.289062 23.648438 -4.621094 21.371094 -5.425781 C 19.089844 -6.164062 17.015625 -7.300781 15.207031 -8.910156 C 13.398438 -10.449219 11.925781 -12.460938 10.851562 -14.871094 C 9.78125 -17.28125 9.246094 -20.164062 9.246094 -23.511719 C 9.246094 -26.796875 9.78125 -29.675781 10.851562 -32.085938 C 11.925781 -34.5 13.398438 -36.441406 15.207031 -38.050781 C 17.015625 -39.65625 19.089844 -40.796875 21.371094 -41.601562 C 23.648438 -42.335938 26.058594 -42.738281 28.46875 -42.738281 C 30.882812 -42.738281 33.226562 -42.335938 35.503906 -41.601562 C 37.78125 -40.796875 39.859375 -39.65625 41.667969 -38.050781 C 43.476562 -36.441406 44.949219 -34.5 46.019531 -32.085938 C 47.09375 -29.675781 47.695312 -26.796875 47.695312 -23.511719 C 47.695312 -20.164062 47.09375 -17.28125 46.019531 -14.871094 C 44.949219 -12.460938 43.476562 -10.449219 41.667969 -8.910156 C 39.859375 -7.300781 37.78125 -6.164062 35.503906 -5.425781 C 33.226562 -4.621094 30.882812 -4.289062 28.46875 -4.289062 Z M 28.46875 -4.289062 "/></g></g></g><g fill="rgb(10.5896%, 10.5896%, 10.5896%)" fill-opacity="1"><g transform="translate(457.603055, 677.379961)"><g><path d="M 31.484375 -4.289062 L 9.3125 -4.289062 L 9.3125 -46.890625 L 5.023438 -46.890625 L 5.023438 0 L 31.484375 0 Z M 31.484375 -4.289062 "/></g></g></g><g fill="rgb(10.5896%, 10.5896%, 10.5896%)" fill-opacity="1"><g transform="translate(500.805094, 677.379961)"><g><path d="M 9.246094 -42.738281 L 30.679688 -42.605469 L 30.679688 -46.890625 L 5.023438 -46.890625 L 5.023438 0 L 30.679688 0 L 30.679688 -4.289062 L 9.246094 -4.289062 L 9.246094 -22.710938 L 26.660156 -22.710938 L 26.660156 -26.996094 L 9.246094 -26.996094 Z M 9.246094 -42.738281 "/></g></g></g><g fill="rgb(10.5896%, 10.5896%, 10.5896%)" fill-opacity="1"><g transform="translate(543.203443, 677.379961)"><g><path d="M 35.035156 -0.0664062 L 21.972656 -21.300781 C 24.652344 -21.703125 26.929688 -22.710938 28.804688 -24.449219 C 31.484375 -26.863281 32.890625 -30.078125 32.890625 -34.03125 C 32.890625 -37.914062 31.484375 -41.132812 28.804688 -43.609375 C 26.257812 -45.820312 23.179688 -46.960938 19.5625 -46.960938 L 5.089844 -46.960938 L 5.089844 -0.0664062 L 9.378906 -0.0664062 L 9.378906 -21.167969 L 17.214844 -21.167969 L 30.078125 -0.0664062 Z M 19.628906 -25.390625 L 9.378906 -25.390625 L 9.378906 -42.671875 L 19.628906 -42.671875 C 20.699219 -42.671875 21.839844 -42.472656 22.910156 -42.136719 C 23.980469 -41.800781 24.988281 -41.265625 25.859375 -40.59375 C 26.660156 -39.859375 27.332031 -38.921875 27.867188 -37.847656 C 28.402344 -36.777344 28.671875 -35.503906 28.671875 -34.03125 C 28.671875 -32.554688 28.402344 -31.214844 27.867188 -30.144531 C 27.332031 -29.074219 26.660156 -28.136719 25.859375 -27.464844 C 24.988281 -26.726562 23.980469 -26.191406 22.910156 -25.859375 C 21.839844 -25.523438 20.699219 -25.390625 19.628906 -25.390625 Z M 19.628906 -25.390625 "/></g></g></g><g fill="rgb(10.5896%, 10.5896%, 10.5896%)" fill-opacity="1"><g transform="translate(122.92685, 749.273415)"><g/></g></g><g fill="rgb(10.5896%, 10.5896%, 10.5896%)" fill-opacity="1"><g transform="translate(160.502922, 749.273415)"><g/></g></g><g fill="rgb(10.5896%, 10.5896%, 10.5896%)" fill-opacity="1"><g transform="translate(198.078995, 749.273415)"><g/></g></g><g fill="rgb(10.5896%, 10.5896%, 10.5896%)" fill-opacity="1"><g transform="translate(235.634818, 749.273415)"><g><path d="M 5.023438 0 L 9.3125 0 L 9.3125 -46.890625 L 5.023438 -46.890625 Z M 5.023438 0 "/></g></g></g><g fill="rgb(10.5896%, 10.5896%, 10.5896%)" fill-opacity="1"><g transform="translate(256.600935, 749.273415)"><g><path d="M 64.441406 -46.890625 L 59.753906 -46.890625 L 43.8125 -5.761719 L 36.976562 -23.445312 L 32.421875 -23.445312 L 25.589844 -5.761719 L 9.644531 -46.890625 L 5.089844 -46.890625 L 23.246094 0 L 27.933594 0 L 34.765625 -17.550781 L 41.601562 0 L 46.289062 0 Z M 64.441406 -46.890625 "/></g></g></g><g fill="rgb(10.5896%, 10.5896%, 10.5896%)" fill-opacity="1"><g transform="translate(332.621087, 749.273415)"><g><path d="M 46.089844 0 L 27.867188 -46.890625 L 23.179688 -46.890625 L 5.023438 0 L 9.578125 0 L 15.609375 -15.472656 L 35.503906 -15.472656 L 41.53125 0 Z M 33.894531 -19.761719 L 17.28125 -19.761719 L 25.589844 -41.132812 Z M 33.894531 -19.761719 "/></g></g></g><g fill="rgb(10.5896%, 10.5896%, 10.5896%)" fill-opacity="1"><g transform="translate(390.356861, 749.273415)"><g><path d="M 33.496094 -22.039062 L 33.359375 -22.105469 C 31.886719 -22.910156 30.277344 -23.578125 28.539062 -24.117188 C 26.796875 -24.585938 24.988281 -25.054688 23.246094 -25.457031 C 21.371094 -25.859375 19.628906 -26.328125 18.152344 -26.726562 C 16.679688 -27.128906 15.40625 -27.667969 14.335938 -28.335938 C 13.265625 -28.9375 12.460938 -29.675781 11.925781 -30.613281 C 11.386719 -31.484375 11.121094 -32.625 11.121094 -33.964844 L 11.121094 -34.164062 C 11.121094 -35.371094 11.386719 -36.441406 11.925781 -37.515625 C 12.460938 -38.585938 13.265625 -39.457031 14.269531 -40.191406 C 15.207031 -40.929688 16.414062 -41.53125 17.820312 -41.933594 C 19.160156 -42.335938 20.699219 -42.605469 22.308594 -42.605469 C 24.585938 -42.605469 26.328125 -42.335938 27.53125 -41.800781 C 28.738281 -41.265625 29.878906 -40.527344 30.882812 -39.589844 L 32.421875 -38.117188 L 35.371094 -41.199219 L 33.828125 -42.671875 C 32.222656 -44.144531 30.546875 -45.21875 28.804688 -45.886719 C 26.996094 -46.558594 24.851562 -46.890625 22.308594 -46.890625 C 17.820312 -46.890625 14.132812 -45.6875 11.253906 -43.273438 C 8.304688 -40.863281 6.898438 -37.78125 6.898438 -34.164062 L 6.898438 -33.964844 C 6.898438 -29.808594 8.640625 -26.726562 12.257812 -24.652344 C 13.664062 -23.78125 15.273438 -23.109375 17.015625 -22.640625 C 18.757812 -22.105469 20.566406 -21.703125 22.375 -21.300781 C 24.25 -20.832031 25.925781 -20.363281 27.464844 -19.960938 C 28.9375 -19.5625 30.210938 -19.023438 31.285156 -18.421875 C 32.355469 -17.753906 33.160156 -17.015625 33.695312 -16.078125 C 34.230469 -15.140625 34.566406 -14 34.566406 -12.660156 C 34.566406 -9.980469 33.496094 -7.90625 31.417969 -6.429688 C 29.273438 -4.957031 26.328125 -4.21875 22.441406 -4.21875 C 20.429688 -4.21875 18.691406 -4.289062 17.28125 -4.554688 C 15.808594 -4.824219 14.605469 -5.089844 13.664062 -5.492188 C 12.660156 -5.828125 11.855469 -6.230469 11.253906 -6.699219 C 10.585938 -7.167969 10.117188 -7.636719 9.714844 -8.105469 L 8.304688 -9.714844 L 5.15625 -6.832031 L 6.566406 -5.226562 C 8.238281 -3.347656 10.316406 -1.941406 12.863281 -1.140625 C 15.40625 -0.269531 18.554688 0.132812 22.441406 0.132812 C 25.457031 0.132812 28 -0.199219 30.078125 -0.9375 C 32.15625 -1.675781 33.828125 -2.679688 35.167969 -3.886719 C 36.441406 -5.089844 37.378906 -6.429688 37.984375 -7.972656 C 38.519531 -9.445312 38.851562 -10.984375 38.851562 -12.59375 C 38.851562 -16.746094 37.042969 -19.894531 33.496094 -22.039062 Z M 33.496094 -22.039062 "/></g></g></g><g fill="rgb(10.5896%, 10.5896%, 10.5896%)" fill-opacity="1"><g transform="translate(440.725307, 749.273415)"><g><path d="M 42.269531 -46.890625 L 37.984375 -46.890625 L 37.984375 -27.734375 L 9.246094 -27.734375 L 9.246094 -46.890625 L 4.957031 -46.890625 L 4.957031 0 L 9.246094 0 L 9.246094 -23.511719 L 37.984375 -23.511719 L 37.984375 0 L 42.269531 0 Z M 42.269531 -46.890625 "/></g></g></g><g fill="rgb(10.5896%, 10.5896%, 10.5896%)" fill-opacity="1"><g transform="translate(494.643473, 749.273415)"><g><path d="M 5.023438 0 L 9.3125 0 L 9.3125 -46.890625 L 5.023438 -46.890625 Z M 5.023438 0 "/></g></g></g><g fill="rgb(10.5896%, 10.5896%, 10.5896%)" fill-opacity="1"><g transform="translate(515.609594, 749.273415)"><g><path d="M 41.601562 -46.890625 L 5.023438 -46.890625 L 5.023438 -42.605469 L 21.167969 -42.605469 L 21.167969 0 L 25.457031 0 L 25.457031 -42.605469 L 41.601562 -42.605469 Z M 41.601562 -46.890625 "/></g></g></g><g fill="rgb(10.5896%, 10.5896%, 10.5896%)" fill-opacity="1"><g transform="translate(568.791008, 749.273415)"><g><path d="M 46.089844 0 L 27.867188 -46.890625 L 23.179688 -46.890625 L 5.023438 0 L 9.578125 0 L 15.609375 -15.472656 L 35.503906 -15.472656 L 41.53125 0 Z M 33.894531 -19.761719 L 17.28125 -19.761719 L 25.589844 -41.132812 Z M 33.894531 -19.761719 "/></g></g></g><g fill="rgb(10.5896%, 10.5896%, 10.5896%)" fill-opacity="1"><g transform="translate(170.585357, 747.675788)"><g><path d="M 36.910156 -7.589844 L 36.730469 -7.710938 C 37.277344 -9.59375 37.578125 -11.59375 37.578125 -13.71875 C 37.578125 -14.875 37.335938 -16.148438 36.910156 -17.546875 C 36.425781 -18.878906 35.757812 -20.214844 34.910156 -21.492188 L 41.828125 -21.492188 L 41.828125 -25.375 L 29.082031 -25.375 L 29.082031 -21.792969 C 29.871094 -21.308594 30.539062 -20.703125 31.144531 -20.035156 C 31.75 -19.304688 32.238281 -18.578125 32.601562 -17.847656 C 32.964844 -17.121094 33.269531 -16.390625 33.453125 -15.664062 C 33.632812 -14.933594 33.753906 -14.265625 33.753906 -13.71875 C 33.753906 -12.203125 33.574219 -10.867188 33.328125 -9.773438 C 31.996094 -10.625 30.597656 -11.65625 29.140625 -12.75 C 27.683594 -13.84375 26.289062 -14.996094 24.953125 -16.332031 C 23.554688 -17.667969 22.28125 -19.0625 21.066406 -20.582031 C 19.851562 -22.097656 18.757812 -23.738281 17.789062 -25.5 L 17.96875 -25.5 C 19.0625 -26.105469 20.15625 -26.832031 21.308594 -27.5625 C 22.402344 -28.289062 23.433594 -29.140625 24.34375 -30.113281 C 25.253906 -31.082031 25.984375 -32.175781 26.589844 -33.453125 C 27.136719 -34.664062 27.441406 -36.183594 27.441406 -37.945312 C 27.441406 -39.402344 27.015625 -40.738281 26.289062 -41.949219 C 25.558594 -43.164062 24.527344 -44.074219 23.191406 -44.683594 C 21.734375 -45.351562 20.15625 -45.59375 18.515625 -45.351562 C 16.816406 -45.109375 15.359375 -44.5 14.144531 -43.46875 C 13.660156 -43.042969 13.175781 -42.496094 12.6875 -41.828125 C 12.140625 -41.101562 11.71875 -40.25 11.414062 -39.21875 C 11.050781 -38.1875 10.867188 -36.972656 10.867188 -35.515625 C 10.867188 -34.058594 11.109375 -32.359375 11.65625 -30.476562 C 11.898438 -29.324219 12.324219 -28.109375 12.871094 -26.894531 C 11.777344 -26.167969 10.746094 -25.375 9.773438 -24.527344 C 8.804688 -23.675781 7.890625 -22.644531 7.164062 -21.492188 C 6.433594 -20.335938 5.828125 -19.003906 5.34375 -17.546875 C 4.855469 -16.027344 4.675781 -14.328125 4.675781 -12.386719 C 4.675781 -10.078125 5.101562 -7.890625 6.070312 -5.949219 C 6.980469 -3.945312 8.316406 -2.246094 10.136719 -0.851562 C 11.65625 0.484375 13.417969 1.457031 15.421875 2.125 C 17.421875 2.851562 19.488281 3.15625 21.671875 3.15625 C 23.796875 3.15625 25.800781 2.851562 27.746094 2.125 C 29.625 1.394531 31.265625 0.425781 32.722656 -0.910156 C 33.695312 -1.761719 34.542969 -2.792969 35.273438 -4.007812 C 37.15625 -2.914062 38.734375 -2.125 39.945312 -1.578125 C 41.160156 -1.03125 41.828125 -0.730469 41.949219 -0.730469 L 43.347656 -4.308594 C 43.285156 -4.308594 42.679688 -4.613281 41.464844 -5.160156 C 40.25 -5.707031 38.734375 -6.496094 36.910156 -7.589844 Z M 16.816406 -40.492188 L 16.757812 -40.554688 C 17.605469 -41.28125 18.578125 -41.648438 19.792969 -41.648438 C 20.519531 -41.648438 21.128906 -41.464844 21.734375 -41.222656 C 22.097656 -40.980469 22.523438 -40.675781 23.007812 -40.191406 C 23.496094 -39.703125 23.738281 -38.914062 23.738281 -37.945312 C 23.738281 -36.851562 23.554688 -35.878906 23.191406 -35.03125 C 22.828125 -34.179688 22.339844 -33.453125 21.734375 -32.785156 C 21.128906 -32.117188 20.335938 -31.449219 19.425781 -30.839844 C 18.515625 -30.234375 17.484375 -29.566406 16.390625 -28.957031 C 16.210938 -29.382812 16.027344 -29.808594 15.90625 -30.234375 C 15.785156 -30.597656 15.664062 -31.023438 15.542969 -31.507812 C 14.933594 -33.574219 14.753906 -35.332031 14.996094 -36.910156 C 15.238281 -38.488281 15.84375 -39.644531 16.816406 -40.492188 Z M 30.292969 -3.765625 L 30.234375 -3.765625 C 29.140625 -2.792969 27.925781 -2.003906 26.46875 -1.519531 C 25.011719 -0.972656 23.496094 -0.730469 21.855469 -0.730469 C 20.277344 -0.730469 18.699219 -0.972656 17.121094 -1.457031 C 15.542969 -1.941406 14.085938 -2.730469 12.871094 -3.703125 C 11.65625 -4.675781 10.625 -5.890625 9.894531 -7.347656 C 9.105469 -8.804688 8.742188 -10.441406 8.742188 -12.386719 C 8.742188 -13.78125 8.863281 -15.054688 9.167969 -16.148438 C 9.472656 -17.242188 9.894531 -18.273438 10.441406 -19.125 C 10.988281 -19.972656 11.65625 -20.703125 12.386719 -21.429688 C 13.113281 -22.097656 13.964844 -22.707031 14.8125 -23.3125 C 16.332031 -20.519531 18.273438 -17.847656 20.703125 -15.300781 C 23.128906 -12.75 25.921875 -10.320312 29.140625 -8.015625 C 29.625 -7.648438 30.171875 -7.285156 30.660156 -6.980469 C 31.144531 -6.617188 31.691406 -6.3125 32.175781 -6.011719 C 31.628906 -5.160156 31.023438 -4.371094 30.292969 -3.765625 Z M 30.292969 -3.765625 "/></g></g></g><g fill="rgb(94.509888%, 94.509888%, 94.509888%)" fill-opacity="1"><g transform="translate(218.262872, 416.789664)"><g><path d="M 46.824219 -200.382812 C 41.535156 -200.382812 39.269531 -194.847656 42.039062 -186.285156 L 91.882812 -34.992188 L 140.722656 -186.285156 C 143.238281 -194.59375 140.972656 -200.382812 135.6875 -200.382812 L 182.257812 -200.382812 C 176.972656 -200.382812 172.691406 -194.847656 172.691406 -186.285156 L 172.691406 -14.097656 C 172.691406 -5.539062 176.972656 0 182.257812 0 L 137.449219 0 C 142.234375 0 146.511719 -5.035156 146.765625 -13.089844 L 146.765625 -186.539062 L 86.597656 0 L 77.535156 0.25 L 15.609375 -187.292969 L 15.609375 -187.546875 C 15.609375 -187.292969 15.609375 -187.292969 15.609375 -187.292969 L 15.609375 -12.839844 C 15.859375 -5.035156 19.886719 0.25 24.921875 0.25 L 0 0.25 C 5.285156 0.25 9.566406 -5.539062 9.566406 -14.097656 L 9.566406 -186.285156 C 9.566406 -194.59375 5.285156 -200.382812 0.25 -200.382812 Z M 46.824219 -200.382812 "/></g></g></g><g fill="rgb(94.509888%, 94.509888%, 94.509888%)" fill-opacity="1"><g transform="translate(444.793781, 418.780124)"><g><path d="M 0 -200.332031 L 44.488281 -200.332031 C 39.460938 -200.332031 35.191406 -194.550781 35.191406 -186.003906 L 35.191406 -14.074219 C 35.191406 -5.78125 39.460938 0 44.488281 0 L 0 0 C 4.777344 0 8.796875 -5.277344 9.300781 -13.070312 L 9.300781 -187.261719 C 8.796875 -195.050781 4.777344 -200.332031 0 -200.332031 Z M 0 -200.332031 "/></g></g></g><g fill="rgb(10.5896%, 10.5896%, 10.5896%)" fill-opacity="1"><g transform="translate(158.666672, 803.096058)"><g><path d="M 11.753906 -7.734375 L 11.707031 -7.757812 C 11.191406 -8.039062 10.625 -8.273438 10.015625 -8.460938 C 9.402344 -8.628906 8.769531 -8.792969 8.15625 -8.933594 C 7.5 -9.074219 6.886719 -9.238281 6.371094 -9.378906 C 5.851562 -9.519531 5.40625 -9.707031 5.03125 -9.945312 C 4.65625 -10.15625 4.371094 -10.414062 4.183594 -10.742188 C 3.996094 -11.046875 3.902344 -11.449219 3.902344 -11.917969 L 3.902344 -11.988281 C 3.902344 -12.414062 3.996094 -12.789062 4.183594 -13.164062 C 4.371094 -13.539062 4.65625 -13.847656 5.007812 -14.105469 C 5.335938 -14.363281 5.757812 -14.574219 6.253906 -14.714844 C 6.722656 -14.855469 7.265625 -14.949219 7.828125 -14.949219 C 8.628906 -14.949219 9.238281 -14.855469 9.660156 -14.667969 C 10.085938 -14.480469 10.484375 -14.222656 10.835938 -13.894531 L 11.378906 -13.375 L 12.414062 -14.457031 L 11.871094 -14.972656 C 11.308594 -15.492188 10.71875 -15.867188 10.109375 -16.101562 C 9.472656 -16.339844 8.722656 -16.457031 7.828125 -16.457031 C 6.253906 -16.457031 4.960938 -16.03125 3.949219 -15.1875 C 2.914062 -14.339844 2.421875 -13.257812 2.421875 -11.988281 L 2.421875 -11.917969 C 2.421875 -10.460938 3.03125 -9.378906 4.300781 -8.652344 C 4.796875 -8.34375 5.359375 -8.109375 5.972656 -7.945312 C 6.582031 -7.757812 7.21875 -7.617188 7.851562 -7.476562 C 8.511719 -7.3125 9.097656 -7.144531 9.636719 -7.003906 C 10.15625 -6.863281 10.601562 -6.675781 10.976562 -6.464844 C 11.355469 -6.230469 11.636719 -5.972656 11.824219 -5.640625 C 12.011719 -5.3125 12.128906 -4.914062 12.128906 -4.441406 C 12.128906 -3.503906 11.753906 -2.773438 11.023438 -2.257812 C 10.273438 -1.738281 9.238281 -1.480469 7.875 -1.480469 C 7.167969 -1.480469 6.558594 -1.503906 6.066406 -1.597656 C 5.546875 -1.691406 5.125 -1.785156 4.796875 -1.925781 C 4.441406 -2.046875 4.160156 -2.1875 3.949219 -2.351562 C 3.714844 -2.515625 3.550781 -2.679688 3.410156 -2.84375 L 2.914062 -3.410156 L 1.808594 -2.398438 L 2.304688 -1.832031 C 2.890625 -1.175781 3.621094 -0.683594 4.511719 -0.398438 C 5.40625 -0.09375 6.511719 0.046875 7.875 0.046875 C 8.933594 0.046875 9.828125 -0.0703125 10.554688 -0.328125 C 11.285156 -0.585938 11.871094 -0.941406 12.339844 -1.363281 C 12.789062 -1.785156 13.117188 -2.257812 13.328125 -2.796875 C 13.515625 -3.316406 13.632812 -3.855469 13.632812 -4.417969 C 13.632812 -5.878906 13 -6.980469 11.753906 -7.734375 Z M 11.753906 -7.734375 "/></g></g></g><g fill="rgb(10.5896%, 10.5896%, 10.5896%)" fill-opacity="1"><g transform="translate(179.560306, 803.096058)"><g><path d="M 15.796875 -14.316406 C 15.046875 -15.023438 14.152344 -15.539062 13.164062 -15.914062 C 12.175781 -16.265625 11.121094 -16.457031 9.992188 -16.457031 C 8.863281 -16.457031 7.78125 -16.265625 6.792969 -15.914062 C 5.804688 -15.539062 4.9375 -15.023438 4.183594 -14.316406 C 3.386719 -13.5625 2.773438 -12.671875 2.351562 -11.660156 C 1.925781 -10.625 1.738281 -9.496094 1.738281 -8.25 C 1.738281 -6.980469 1.925781 -5.851562 2.351562 -4.84375 C 2.773438 -3.808594 3.386719 -2.9375 4.183594 -2.1875 C 4.9375 -1.480469 5.804688 -0.941406 6.792969 -0.585938 C 7.78125 -0.210938 8.863281 -0.046875 9.992188 -0.046875 C 11.121094 -0.046875 12.175781 -0.210938 13.164062 -0.585938 C 14.152344 -0.941406 15.046875 -1.480469 15.796875 -2.1875 C 16.597656 -2.9375 17.183594 -3.808594 17.605469 -4.84375 C 18.03125 -5.851562 18.242188 -6.980469 18.242188 -8.25 C 18.242188 -9.496094 18.03125 -10.625 17.605469 -11.660156 C 17.183594 -12.671875 16.597656 -13.5625 15.796875 -14.316406 Z M 9.992188 -1.503906 C 9.144531 -1.503906 8.296875 -1.621094 7.5 -1.902344 C 6.699219 -2.164062 5.972656 -2.5625 5.335938 -3.125 C 4.703125 -3.667969 4.183594 -4.371094 3.808594 -5.21875 C 3.433594 -6.066406 3.242188 -7.074219 3.242188 -8.25 C 3.242188 -9.402344 3.433594 -10.414062 3.808594 -11.261719 C 4.183594 -12.105469 4.703125 -12.789062 5.335938 -13.351562 C 5.972656 -13.917969 6.699219 -14.316406 7.5 -14.597656 C 8.296875 -14.855469 9.144531 -14.996094 9.992188 -14.996094 C 10.835938 -14.996094 11.660156 -14.855469 12.460938 -14.597656 C 13.257812 -14.316406 13.988281 -13.917969 14.621094 -13.351562 C 15.257812 -12.789062 15.773438 -12.105469 16.148438 -11.261719 C 16.527344 -10.414062 16.738281 -9.402344 16.738281 -8.25 C 16.738281 -7.074219 16.527344 -6.066406 16.148438 -5.21875 C 15.773438 -4.371094 15.257812 -3.667969 14.621094 -3.125 C 13.988281 -2.5625 13.257812 -2.164062 12.460938 -1.902344 C 11.660156 -1.621094 10.835938 -1.503906 9.992188 -1.503906 Z M 9.992188 -1.503906 "/></g></g></g><g fill="rgb(10.5896%, 10.5896%, 10.5896%)" fill-opacity="1"><g transform="translate(205.083265, 803.096058)"><g><path d="M 16.621094 -3.078125 L 15.539062 -4.042969 L 15.023438 -3.503906 C 14.410156 -2.84375 13.65625 -2.328125 12.8125 -2 C 11.941406 -1.667969 11 -1.503906 9.96875 -1.503906 C 9.121094 -1.503906 8.273438 -1.621094 7.476562 -1.902344 C 6.675781 -2.164062 5.949219 -2.5625 5.3125 -3.125 C 4.679688 -3.667969 4.160156 -4.371094 3.785156 -5.21875 C 3.410156 -6.066406 3.21875 -7.074219 3.21875 -8.25 C 3.21875 -9.402344 3.410156 -10.414062 3.785156 -11.261719 C 4.160156 -12.105469 4.679688 -12.789062 5.3125 -13.351562 C 5.949219 -13.917969 6.675781 -14.316406 7.476562 -14.597656 C 8.273438 -14.855469 9.121094 -14.996094 9.96875 -14.996094 C 11 -14.996094 11.941406 -14.808594 12.8125 -14.480469 C 13.65625 -14.152344 14.410156 -13.65625 15.023438 -13 L 15.539062 -12.460938 L 16.621094 -13.46875 L 16.101562 -14.011719 C 15.351562 -14.808594 14.433594 -15.421875 13.375 -15.84375 C 12.316406 -16.265625 11.191406 -16.480469 9.96875 -16.480469 C 8.839844 -16.480469 7.757812 -16.289062 6.769531 -15.9375 C 5.78125 -15.5625 4.914062 -15.046875 4.160156 -14.339844 C 3.363281 -13.585938 2.75 -12.695312 2.328125 -11.683594 C 1.902344 -10.648438 1.714844 -9.519531 1.714844 -8.273438 C 1.714844 -7.003906 1.902344 -5.878906 2.328125 -4.867188 C 2.75 -3.832031 3.363281 -2.960938 4.160156 -2.210938 C 4.914062 -1.503906 5.78125 -0.964844 6.769531 -0.609375 C 7.757812 -0.234375 8.839844 -0.0703125 9.96875 -0.0703125 C 11.191406 -0.0703125 12.316406 -0.28125 13.375 -0.707031 C 14.433594 -1.128906 15.351562 -1.738281 16.101562 -2.539062 Z M 16.621094 -3.078125 "/></g></g></g><g fill="rgb(10.5896%, 10.5896%, 10.5896%)" fill-opacity="1"><g transform="translate(229.031788, 803.096058)"><g><path d="M 1.761719 0 L 3.269531 0 L 3.269531 -16.457031 L 1.761719 -16.457031 Z M 1.761719 0 "/></g></g></g><g fill="rgb(10.5896%, 10.5896%, 10.5896%)" fill-opacity="1"><g transform="translate(239.609323, 803.096058)"><g><path d="M 3.242188 -14.996094 L 10.765625 -14.949219 L 10.765625 -16.457031 L 1.761719 -16.457031 L 1.761719 0 L 10.765625 0 L 10.765625 -1.503906 L 3.242188 -1.503906 L 3.242188 -7.96875 L 9.355469 -7.96875 L 9.355469 -9.472656 L 3.242188 -9.472656 Z M 3.242188 -14.996094 "/></g></g></g><g fill="rgb(10.5896%, 10.5896%, 10.5896%)" fill-opacity="1"><g transform="translate(257.706572, 803.096058)"><g><path d="M 12.742188 -14.316406 C 11.988281 -15.023438 11.09375 -15.539062 10.109375 -15.914062 C 9.121094 -16.265625 8.0625 -16.457031 6.933594 -16.457031 L 1.761719 -16.457031 L 1.761719 0 L 6.933594 0 C 8.0625 0 9.121094 -0.164062 10.109375 -0.539062 C 11.09375 -0.894531 11.988281 -1.433594 12.742188 -2.140625 C 13.539062 -2.890625 14.128906 -3.761719 14.550781 -4.796875 C 14.972656 -5.804688 15.1875 -6.933594 15.1875 -8.203125 C 15.1875 -10.71875 14.363281 -12.765625 12.742188 -14.316406 Z M 6.933594 -1.457031 L 3.242188 -1.457031 L 3.242188 -14.925781 L 6.933594 -14.925781 C 7.78125 -14.925781 8.605469 -14.785156 9.402344 -14.527344 C 10.203125 -14.246094 10.929688 -13.847656 11.566406 -13.28125 C 12.199219 -12.71875 12.71875 -12.035156 13.09375 -11.191406 C 13.46875 -10.34375 13.679688 -9.332031 13.679688 -8.179688 C 13.679688 -7.003906 13.46875 -6.019531 13.09375 -5.171875 C 12.71875 -4.324219 12.199219 -3.621094 11.566406 -3.054688 C 10.929688 -2.492188 10.203125 -2.09375 9.402344 -1.832031 C 8.605469 -1.574219 7.78125 -1.457031 6.933594 -1.457031 Z M 6.933594 -1.457031 "/></g></g></g><g fill="rgb(10.5896%, 10.5896%, 10.5896%)" fill-opacity="1"><g transform="translate(280.198156, 803.096058)"><g><path d="M 16.171875 0 L 9.777344 -16.457031 L 8.132812 -16.457031 L 1.761719 0 L 3.363281 0 L 5.476562 -5.429688 L 12.460938 -5.429688 L 14.574219 0 Z M 11.894531 -6.933594 L 6.066406 -6.933594 L 8.980469 -14.433594 Z M 11.894531 -6.933594 "/></g></g></g><g fill="rgb(10.5896%, 10.5896%, 10.5896%)" fill-opacity="1"><g transform="translate(303.676696, 803.096058)"><g><path d="M 12.742188 -14.316406 C 11.988281 -15.023438 11.09375 -15.539062 10.109375 -15.914062 C 9.121094 -16.265625 8.0625 -16.457031 6.933594 -16.457031 L 1.761719 -16.457031 L 1.761719 0 L 6.933594 0 C 8.0625 0 9.121094 -0.164062 10.109375 -0.539062 C 11.09375 -0.894531 11.988281 -1.433594 12.742188 -2.140625 C 13.539062 -2.890625 14.128906 -3.761719 14.550781 -4.796875 C 14.972656 -5.804688 15.1875 -6.933594 15.1875 -8.203125 C 15.1875 -10.71875 14.363281 -12.765625 12.742188 -14.316406 Z M 6.933594 -1.457031 L 3.242188 -1.457031 L 3.242188 -14.925781 L 6.933594 -14.925781 C 7.78125 -14.925781 8.605469 -14.785156 9.402344 -14.527344 C 10.203125 -14.246094 10.929688 -13.847656 11.566406 -13.28125 C 12.199219 -12.71875 12.71875 -12.035156 13.09375 -11.191406 C 13.46875 -10.34375 13.679688 -9.332031 13.679688 -8.179688 C 13.679688 -7.003906 13.46875 -6.019531 13.09375 -5.171875 C 12.71875 -4.324219 12.199219 -3.621094 11.566406 -3.054688 C 10.929688 -2.492188 10.203125 -2.09375 9.402344 -1.832031 C 8.605469 -1.574219 7.78125 -1.457031 6.933594 -1.457031 Z M 6.933594 -1.457031 "/></g></g></g><g fill="rgb(10.5896%, 10.5896%, 10.5896%)" fill-opacity="1"><g transform="translate(326.16828, 803.096058)"><g><path d="M 3.242188 -14.996094 L 10.765625 -14.949219 L 10.765625 -16.457031 L 1.761719 -16.457031 L 1.761719 0 L 10.765625 0 L 10.765625 -1.503906 L 3.242188 -1.503906 L 3.242188 -7.96875 L 9.355469 -7.96875 L 9.355469 -9.472656 L 3.242188 -9.472656 Z M 3.242188 -14.996094 "/></g></g></g><g fill="rgb(10.5896%, 10.5896%, 10.5896%)" fill-opacity="1"><g transform="translate(344.26553, 803.096058)"><g/></g></g><g fill="rgb(10.5896%, 10.5896%, 10.5896%)" fill-opacity="1"><g transform="translate(360.670836, 803.096058)"><g><path d="M 12.742188 -14.316406 C 11.988281 -15.023438 11.09375 -15.539062 10.109375 -15.914062 C 9.121094 -16.265625 8.0625 -16.457031 6.933594 -16.457031 L 1.761719 -16.457031 L 1.761719 0 L 6.933594 0 C 8.0625 0 9.121094 -0.164062 10.109375 -0.539062 C 11.09375 -0.894531 11.988281 -1.433594 12.742188 -2.140625 C 13.539062 -2.890625 14.128906 -3.761719 14.550781 -4.796875 C 14.972656 -5.804688 15.1875 -6.933594 15.1875 -8.203125 C 15.1875 -10.71875 14.363281 -12.765625 12.742188 -14.316406 Z M 6.933594 -1.457031 L 3.242188 -1.457031 L 3.242188 -14.925781 L 6.933594 -14.925781 C 7.78125 -14.925781 8.605469 -14.785156 9.402344 -14.527344 C 10.203125 -14.246094 10.929688 -13.847656 11.566406 -13.28125 C 12.199219 -12.71875 12.71875 -12.035156 13.09375 -11.191406 C 13.46875 -10.34375 13.679688 -9.332031 13.679688 -8.179688 C 13.679688 -7.003906 13.46875 -6.019531 13.09375 -5.171875 C 12.71875 -4.324219 12.199219 -3.621094 11.566406 -3.054688 C 10.929688 -2.492188 10.203125 -2.09375 9.402344 -1.832031 C 8.605469 -1.574219 7.78125 -1.457031 6.933594 -1.457031 Z M 6.933594 -1.457031 "/></g></g></g><g fill="rgb(10.5896%, 10.5896%, 10.5896%)" fill-opacity="1"><g transform="translate(383.162419, 803.096058)"><g><path d="M 3.242188 -14.996094 L 10.765625 -14.949219 L 10.765625 -16.457031 L 1.761719 -16.457031 L 1.761719 0 L 10.765625 0 L 10.765625 -1.503906 L 3.242188 -1.503906 L 3.242188 -7.96875 L 9.355469 -7.96875 L 9.355469 -9.472656 L 3.242188 -9.472656 Z M 3.242188 -14.996094 "/></g></g></g><g fill="rgb(10.5896%, 10.5896%, 10.5896%)" fill-opacity="1"><g transform="translate(401.259681, 803.096058)"><g/></g></g><g fill="rgb(10.5896%, 10.5896%, 10.5896%)" fill-opacity="1"><g transform="translate(417.664976, 803.096058)"><g><path d="M 16.171875 0 L 9.777344 -16.457031 L 8.132812 -16.457031 L 1.761719 0 L 3.363281 0 L 5.476562 -5.429688 L 12.460938 -5.429688 L 14.574219 0 Z M 11.894531 -6.933594 L 6.066406 -6.933594 L 8.980469 -14.433594 Z M 11.894531 -6.933594 "/></g></g></g><g fill="rgb(10.5896%, 10.5896%, 10.5896%)" fill-opacity="1"><g transform="translate(441.143505, 803.096058)"><g><path d="M 12.742188 -14.316406 C 11.988281 -15.023438 11.09375 -15.539062 10.109375 -15.914062 C 9.121094 -16.265625 8.0625 -16.457031 6.933594 -16.457031 L 1.761719 -16.457031 L 1.761719 0 L 6.933594 0 C 8.0625 0 9.121094 -0.164062 10.109375 -0.539062 C 11.09375 -0.894531 11.988281 -1.433594 12.742188 -2.140625 C 13.539062 -2.890625 14.128906 -3.761719 14.550781 -4.796875 C 14.972656 -5.804688 15.1875 -6.933594 15.1875 -8.203125 C 15.1875 -10.71875 14.363281 -12.765625 12.742188 -14.316406 Z M 6.933594 -1.457031 L 3.242188 -1.457031 L 3.242188 -14.925781 L 6.933594 -14.925781 C 7.78125 -14.925781 8.605469 -14.785156 9.402344 -14.527344 C 10.203125 -14.246094 10.929688 -13.847656 11.566406 -13.28125 C 12.199219 -12.71875 12.71875 -12.035156 13.09375 -11.191406 C 13.46875 -10.34375 13.679688 -9.332031 13.679688 -8.179688 C 13.679688 -7.003906 13.46875 -6.019531 13.09375 -5.171875 C 12.71875 -4.324219 12.199219 -3.621094 11.566406 -3.054688 C 10.929688 -2.492188 10.203125 -2.09375 9.402344 -1.832031 C 8.605469 -1.574219 7.78125 -1.457031 6.933594 -1.457031 Z M 6.933594 -1.457031 "/></g></g></g><g fill="rgb(10.5896%, 10.5896%, 10.5896%)" fill-opacity="1"><g transform="translate(463.635089, 803.096058)"><g><path d="M 16.148438 -16.457031 L 14.550781 -16.457031 L 8.957031 -2.023438 L 3.363281 -16.457031 L 1.761719 -16.457031 L 8.132812 0 L 9.777344 0 Z M 16.148438 -16.457031 "/></g></g></g><g fill="rgb(10.5896%, 10.5896%, 10.5896%)" fill-opacity="1"><g transform="translate(487.113617, 803.096058)"><g><path d="M 15.796875 -14.316406 C 15.046875 -15.023438 14.152344 -15.539062 13.164062 -15.914062 C 12.175781 -16.265625 11.121094 -16.457031 9.992188 -16.457031 C 8.863281 -16.457031 7.78125 -16.265625 6.792969 -15.914062 C 5.804688 -15.539062 4.9375 -15.023438 4.183594 -14.316406 C 3.386719 -13.5625 2.773438 -12.671875 2.351562 -11.660156 C 1.925781 -10.625 1.738281 -9.496094 1.738281 -8.25 C 1.738281 -6.980469 1.925781 -5.851562 2.351562 -4.84375 C 2.773438 -3.808594 3.386719 -2.9375 4.183594 -2.1875 C 4.9375 -1.480469 5.804688 -0.941406 6.792969 -0.585938 C 7.78125 -0.210938 8.863281 -0.046875 9.992188 -0.046875 C 11.121094 -0.046875 12.175781 -0.210938 13.164062 -0.585938 C 14.152344 -0.941406 15.046875 -1.480469 15.796875 -2.1875 C 16.597656 -2.9375 17.183594 -3.808594 17.605469 -4.84375 C 18.03125 -5.851562 18.242188 -6.980469 18.242188 -8.25 C 18.242188 -9.496094 18.03125 -10.625 17.605469 -11.660156 C 17.183594 -12.671875 16.597656 -13.5625 15.796875 -14.316406 Z M 9.992188 -1.503906 C 9.144531 -1.503906 8.296875 -1.621094 7.5 -1.902344 C 6.699219 -2.164062 5.972656 -2.5625 5.335938 -3.125 C 4.703125 -3.667969 4.183594 -4.371094 3.808594 -5.21875 C 3.433594 -6.066406 3.242188 -7.074219 3.242188 -8.25 C 3.242188 -9.402344 3.433594 -10.414062 3.808594 -11.261719 C 4.183594 -12.105469 4.703125 -12.789062 5.335938 -13.351562 C 5.972656 -13.917969 6.699219 -14.316406 7.5 -14.597656 C 8.296875 -14.855469 9.144531 -14.996094 9.992188 -14.996094 C 10.835938 -14.996094 11.660156 -14.855469 12.460938 -14.597656 C 13.257812 -14.316406 13.988281 -13.917969 14.621094 -13.351562 C 15.257812 -12.789062 15.773438 -12.105469 16.148438 -11.261719 C 16.527344 -10.414062 16.738281 -9.402344 16.738281 -8.25 C 16.738281 -7.074219 16.527344 -6.066406 16.148438 -5.21875 C 15.773438 -4.371094 15.257812 -3.667969 14.621094 -3.125 C 13.988281 -2.5625 13.257812 -2.164062 12.460938 -1.902344 C 11.660156 -1.621094 10.835938 -1.503906 9.992188 -1.503906 Z M 9.992188 -1.503906 "/></g></g></g><g fill="rgb(10.5896%, 10.5896%, 10.5896%)" fill-opacity="1"><g transform="translate(512.636576, 803.096058)"><g><path d="M 8.863281 -7.617188 L 8.839844 -6.066406 L 14.832031 -6.066406 L 14.832031 -3.292969 C 14.222656 -2.703125 13.515625 -2.257812 12.695312 -1.949219 C 11.871094 -1.644531 10.976562 -1.503906 10.015625 -1.503906 C 9.167969 -1.503906 8.320312 -1.621094 7.523438 -1.902344 C 6.722656 -2.164062 5.996094 -2.5625 5.359375 -3.125 C 4.726562 -3.667969 4.207031 -4.371094 3.832031 -5.21875 C 3.457031 -6.066406 3.269531 -7.074219 3.269531 -8.25 C 3.269531 -9.402344 3.457031 -10.414062 3.832031 -11.261719 C 4.207031 -12.105469 4.726562 -12.789062 5.359375 -13.351562 C 5.996094 -13.917969 6.722656 -14.316406 7.523438 -14.597656 C 8.320312 -14.855469 9.167969 -14.996094 10.015625 -14.996094 C 11.046875 -14.996094 11.988281 -14.808594 12.859375 -14.480469 C 13.703125 -14.152344 14.457031 -13.65625 15.070312 -13 L 15.585938 -12.460938 L 16.667969 -13.46875 L 16.148438 -14.011719 C 15.398438 -14.808594 14.480469 -15.421875 13.421875 -15.84375 C 12.363281 -16.265625 11.238281 -16.480469 10.015625 -16.480469 C 8.886719 -16.480469 7.804688 -16.289062 6.816406 -15.9375 C 5.828125 -15.5625 4.960938 -15.046875 4.207031 -14.339844 C 3.410156 -13.585938 2.796875 -12.695312 2.375 -11.683594 C 1.949219 -10.648438 1.761719 -9.519531 1.761719 -8.273438 C 1.761719 -7.003906 1.949219 -5.878906 2.375 -4.867188 C 2.796875 -3.832031 3.410156 -2.960938 4.207031 -2.210938 C 4.960938 -1.503906 5.828125 -0.964844 6.816406 -0.609375 C 7.804688 -0.234375 8.886719 -0.0703125 10.015625 -0.0703125 C 11.238281 -0.0703125 12.363281 -0.28125 13.421875 -0.707031 C 14.480469 -1.128906 15.398438 -1.738281 16.148438 -2.539062 L 16.363281 -2.75 L 16.363281 -7.617188 Z M 8.863281 -7.617188 "/></g></g></g><g fill="rgb(10.5896%, 10.5896%, 10.5896%)" fill-opacity="1"><g transform="translate(536.585111, 803.096058)"><g><path d="M 16.171875 0 L 9.777344 -16.457031 L 8.132812 -16.457031 L 1.761719 0 L 3.363281 0 L 5.476562 -5.429688 L 12.460938 -5.429688 L 14.574219 0 Z M 11.894531 -6.933594 L 6.066406 -6.933594 L 8.980469 -14.433594 Z M 11.894531 -6.933594 "/></g></g></g><g fill="rgb(10.5896%, 10.5896%, 10.5896%)" fill-opacity="1"><g transform="translate(560.06364, 803.096058)"><g><path d="M 12.742188 -14.316406 C 11.988281 -15.023438 11.09375 -15.539062 10.109375 -15.914062 C 9.121094 -16.265625 8.0625 -16.457031 6.933594 -16.457031 L 1.761719 -16.457031 L 1.761719 0 L 6.933594 0 C 8.0625 0 9.121094 -0.164062 10.109375 -0.539062 C 11.09375 -0.894531 11.988281 -1.433594 12.742188 -2.140625 C 13.539062 -2.890625 14.128906 -3.761719 14.550781 -4.796875 C 14.972656 -5.804688 15.1875 -6.933594 15.1875 -8.203125 C 15.1875 -10.71875 14.363281 -12.765625 12.742188 -14.316406 Z M 6.933594 -1.457031 L 3.242188 -1.457031 L 3.242188 -14.925781 L 6.933594 -14.925781 C 7.78125 -14.925781 8.605469 -14.785156 9.402344 -14.527344 C 10.203125 -14.246094 10.929688 -13.847656 11.566406 -13.28125 C 12.199219 -12.71875 12.71875 -12.035156 13.09375 -11.191406 C 13.46875 -10.34375 13.679688 -9.332031 13.679688 -8.179688 C 13.679688 -7.003906 13.46875 -6.019531 13.09375 -5.171875 C 12.71875 -4.324219 12.199219 -3.621094 11.566406 -3.054688 C 10.929688 -2.492188 10.203125 -2.09375 9.402344 -1.832031 C 8.605469 -1.574219 7.78125 -1.457031 6.933594 -1.457031 Z M 6.933594 -1.457031 "/></g></g></g><g fill="rgb(10.5896%, 10.5896%, 10.5896%)" fill-opacity="1"><g transform="translate(582.555224, 803.096058)"><g><path d="M 15.796875 -14.316406 C 15.046875 -15.023438 14.152344 -15.539062 13.164062 -15.914062 C 12.175781 -16.265625 11.121094 -16.457031 9.992188 -16.457031 C 8.863281 -16.457031 7.78125 -16.265625 6.792969 -15.914062 C 5.804688 -15.539062 4.9375 -15.023438 4.183594 -14.316406 C 3.386719 -13.5625 2.773438 -12.671875 2.351562 -11.660156 C 1.925781 -10.625 1.738281 -9.496094 1.738281 -8.25 C 1.738281 -6.980469 1.925781 -5.851562 2.351562 -4.84375 C 2.773438 -3.808594 3.386719 -2.9375 4.183594 -2.1875 C 4.9375 -1.480469 5.804688 -0.941406 6.792969 -0.585938 C 7.78125 -0.210938 8.863281 -0.046875 9.992188 -0.046875 C 11.121094 -0.046875 12.175781 -0.210938 13.164062 -0.585938 C 14.152344 -0.941406 15.046875 -1.480469 15.796875 -2.1875 C 16.597656 -2.9375 17.183594 -3.808594 17.605469 -4.84375 C 18.03125 -5.851562 18.242188 -6.980469 18.242188 -8.25 C 18.242188 -9.496094 18.03125 -10.625 17.605469 -11.660156 C 17.183594 -12.671875 16.597656 -13.5625 15.796875 -14.316406 Z M 9.992188 -1.503906 C 9.144531 -1.503906 8.296875 -1.621094 7.5 -1.902344 C 6.699219 -2.164062 5.972656 -2.5625 5.335938 -3.125 C 4.703125 -3.667969 4.183594 -4.371094 3.808594 -5.21875 C 3.433594 -6.066406 3.242188 -7.074219 3.242188 -8.25 C 3.242188 -9.402344 3.433594 -10.414062 3.808594 -11.261719 C 4.183594 -12.105469 4.703125 -12.789062 5.335938 -13.351562 C 5.972656 -13.917969 6.699219 -14.316406 7.5 -14.597656 C 8.296875 -14.855469 9.144531 -14.996094 9.992188 -14.996094 C 10.835938 -14.996094 11.660156 -14.855469 12.460938 -14.597656 C 13.257812 -14.316406 13.988281 -13.917969 14.621094 -13.351562 C 15.257812 -12.789062 15.773438 -12.105469 16.148438 -11.261719 C 16.527344 -10.414062 16.738281 -9.402344 16.738281 -8.25 C 16.738281 -7.074219 16.527344 -6.066406 16.148438 -5.21875 C 15.773438 -4.371094 15.257812 -3.667969 14.621094 -3.125 C 13.988281 -2.5625 13.257812 -2.164062 12.460938 -1.902344 C 11.660156 -1.621094 10.835938 -1.503906 9.992188 -1.503906 Z M 9.992188 -1.503906 "/></g></g></g><g fill="rgb(10.5896%, 10.5896%, 10.5896%)" fill-opacity="1"><g transform="translate(608.078159, 803.096058)"><g><path d="M 11.753906 -7.734375 L 11.707031 -7.757812 C 11.191406 -8.039062 10.625 -8.273438 10.015625 -8.460938 C 9.402344 -8.628906 8.769531 -8.792969 8.15625 -8.933594 C 7.5 -9.074219 6.886719 -9.238281 6.371094 -9.378906 C 5.851562 -9.519531 5.40625 -9.707031 5.03125 -9.945312 C 4.65625 -10.15625 4.371094 -10.414062 4.183594 -10.742188 C 3.996094 -11.046875 3.902344 -11.449219 3.902344 -11.917969 L 3.902344 -11.988281 C 3.902344 -12.414062 3.996094 -12.789062 4.183594 -13.164062 C 4.371094 -13.539062 4.65625 -13.847656 5.007812 -14.105469 C 5.335938 -14.363281 5.757812 -14.574219 6.253906 -14.714844 C 6.722656 -14.855469 7.265625 -14.949219 7.828125 -14.949219 C 8.628906 -14.949219 9.238281 -14.855469 9.660156 -14.667969 C 10.085938 -14.480469 10.484375 -14.222656 10.835938 -13.894531 L 11.378906 -13.375 L 12.414062 -14.457031 L 11.871094 -14.972656 C 11.308594 -15.492188 10.71875 -15.867188 10.109375 -16.101562 C 9.472656 -16.339844 8.722656 -16.457031 7.828125 -16.457031 C 6.253906 -16.457031 4.960938 -16.03125 3.949219 -15.1875 C 2.914062 -14.339844 2.421875 -13.257812 2.421875 -11.988281 L 2.421875 -11.917969 C 2.421875 -10.460938 3.03125 -9.378906 4.300781 -8.652344 C 4.796875 -8.34375 5.359375 -8.109375 5.972656 -7.945312 C 6.582031 -7.757812 7.21875 -7.617188 7.851562 -7.476562 C 8.511719 -7.3125 9.097656 -7.144531 9.636719 -7.003906 C 10.15625 -6.863281 10.601562 -6.675781 10.976562 -6.464844 C 11.355469 -6.230469 11.636719 -5.972656 11.824219 -5.640625 C 12.011719 -5.3125 12.128906 -4.914062 12.128906 -4.441406 C 12.128906 -3.503906 11.753906 -2.773438 11.023438 -2.257812 C 10.273438 -1.738281 9.238281 -1.480469 7.875 -1.480469 C 7.167969 -1.480469 6.558594 -1.503906 6.066406 -1.597656 C 5.546875 -1.691406 5.125 -1.785156 4.796875 -1.925781 C 4.441406 -2.046875 4.160156 -2.1875 3.949219 -2.351562 C 3.714844 -2.515625 3.550781 -2.679688 3.410156 -2.84375 L 2.914062 -3.410156 L 1.808594 -2.398438 L 2.304688 -1.832031 C 2.890625 -1.175781 3.621094 -0.683594 4.511719 -0.398438 C 5.40625 -0.09375 6.511719 0.046875 7.875 0.046875 C 8.933594 0.046875 9.828125 -0.0703125 10.554688 -0.328125 C 11.285156 -0.585938 11.871094 -0.941406 12.339844 -1.363281 C 12.789062 -1.785156 13.117188 -2.257812 13.328125 -2.796875 C 13.515625 -3.316406 13.632812 -3.855469 13.632812 -4.417969 C 13.632812 -5.878906 13 -6.980469 11.753906 -7.734375 Z M 11.753906 -7.734375 "/></g></g></g></svg>